<svg xmlns="http://www.w3.org/2000/svg" width="1200" height="680" viewBox="0 0 1200 680" role="img" aria-labelledby="title desc">
<title id="title">一个总体项目，四个职责清晰的仓库</title><desc id="desc">实线为当前组件流程，虚线为待实现集成；不表示融合告警已验证。</desc>
<defs><marker id="arrow" markerWidth="8" markerHeight="6" refX="7" refY="3" orient="auto"><polygon points="0 0,8 3,0 6" fill="#59716b"/></marker><marker id="arrow-accent" markerWidth="8" markerHeight="6" refX="7" refY="3" orient="auto"><polygon points="0 0,8 3,0 6" fill="#0a7ea4"/></marker><marker id="arrow-link" markerWidth="8" markerHeight="6" refX="7" refY="3" orient="auto"><polygon points="0 0,8 3,0 6" fill="#0a7ea4"/></marker></defs>
<style>text{font-family:'Segoe UI','Microsoft YaHei','Noto Sans CJK SC',sans-serif;fill:#17352e}.tag{font-size:12px;letter-spacing:1px;fill:#59716b}.sub{font-size:16px;fill:#59716b}.name{font-size:24px;font-weight:600}.path{fill:none;stroke:#59716b;stroke-width:2;marker-end:url(#arrow)}</style>
<rect width="1200" height="680" fill="#f7faf8"/>
<rect x="40" y="36" width="8" height="24" fill="#92c142"/>
<text x="64" y="56" class="tag">COWMATA / SYSTEM / 2026-09-07</text>
<text x="40" y="104" font-size="32" font-weight="600">一个总体项目，四个职责清晰的仓库</text>
<path d="M168 184 V160 Q168 152 176 152 H960 Q968 152 968 160 V184" class="path"/>
<text x="448" y="140" class="sub">原始传感数据用于识别</text>
<path d="M296 256 H392" class="path"/>
<path d="M680 256 H776" class="path"/>
<path d="M168 328 V424" class="path"/>
<path d="M296 496 H392" class="path"/>
<path d="M968 328 V368 Q968 376 960 376 H544 Q536 376 536 384 V424" class="path" stroke-dasharray="6 4"/>
<path d="M680 496 H776" class="path" stroke-dasharray="6 4"/>
<g><rect x="40" y="184" width="256" height="144" rx="8" fill="#ffffff" stroke="#b8ccc4" stroke-width="2"/><text x="60" y="212" class="tag">INPUT</text><text x="60" y="248" class="name">传感数据与同步视频</text><text x="60" y="276" class="sub">连续 IMU · 温度</text><text x="60" y="300" class="sub">可回看、可核对的观测</text></g>
<g><rect x="392" y="184" width="288" height="144" rx="8" fill="#ffffff" stroke="#b8ccc4" stroke-width="2"/><text x="412" y="212" class="tag">ANNOTATOR</text><text x="412" y="248" class="name">人工标注与复核</text><text x="412" y="276" class="sub">对齐时间、标签和区间</text><text x="412" y="300" class="sub">独立维护的桌面工具</text></g>
<g><rect x="776" y="184" width="384" height="144" rx="8" fill="#edf7fa" stroke="#0a7ea4" stroke-width="2"/><text x="796" y="212" class="tag">COWMATA-TAILRING</text><text x="796" y="248" class="name">行为与事件识别</text><text x="796" y="276" class="sub">训练 · 推理 · 评估</text><text x="796" y="300" class="sub">事件候选与状态时间线</text></g>
<g><rect x="40" y="424" width="256" height="144" rx="8" fill="#ffffff" stroke="#b8ccc4" stroke-width="2"/><text x="60" y="452" class="tag">AUXILIARY MODULES</text><text x="60" y="488" class="name">传感辅助证据</text><text x="60" y="516" class="sub">温度 · 活动量</text><text x="60" y="540" class="sub">当前产犊实验模块</text></g>
<g><rect x="392" y="424" width="288" height="144" rx="8" fill="#edf7fa" stroke="#0a7ea4" stroke-width="2"/><text x="412" y="452" class="tag">COWMATA-RISK / PRIVATE</text><text x="412" y="488" class="name">综合决策研究</text><text x="412" y="516" class="sub">辅助证据模块已接入</text><text x="412" y="540" class="sub">融合决策待开发</text></g>
<g><rect x="776" y="424" width="384" height="144" rx="8" fill="#ffffff" stroke="#b8ccc4" stroke-width="2" stroke-dasharray="6 4"/><text x="796" y="452" class="tag">ROADMAP</text><text x="796" y="488" class="name">牧场风险监测</text><text x="796" y="516" class="sub">产犊 · 发情 · 妊娠 · 健康</text><text x="796" y="540" class="sub">统一告警仍属规划</text></g>
<line x1="40" y1="616" x2="1160" y2="616" stroke="#cfddd7"/><text x="40" y="648" class="sub">实线：当前组件流程　·　虚线：待实现集成　·　辅助证据不等于已标定风险概率</text></svg>